<?xml version="1.0" standalone="no"?>
<!DOCTYPE svg PUBLIC "-//W3C//DTD SVG 20010904//EN"
 "http://www.w3.org/TR/2001/REC-SVG-20010904/DTD/svg10.dtd">
<svg version="1.0" xmlns="http://www.w3.org/2000/svg"
 width="1024.000000pt" height="1024.000000pt" viewBox="0 0 1024.000000 1024.000000"
 preserveAspectRatio="xMidYMid meet">

<g transform="translate(0.000000,1024.000000) scale(0.100000,-0.100000)"
fill="#000000" stroke="none">
<path d="M4665 7350 c-328 -5 -353 -6 -395 -26 -79 -37 -112 -86 -264 -397
-79 -161 -322 -652 -541 -1092 -357 -719 -465 -940 -465 -951 0 -2 101 -4 225
-4 l226 0 144 295 144 295 450 0 451 0 2 -347 3 -348 208 -3 207 -2 0 279 0
280 -83 133 c-46 73 -122 196 -170 274 l-87 141 0 189 0 190 91 149 c50 83
127 207 170 276 l79 126 0 277 0 276 -22 -2 c-13 -1 -180 -5 -373 -8z m-25
-935 l0 -525 -340 0 c-187 0 -340 4 -340 8 0 5 115 241 255 525 l255 517 85 0
85 0 0 -525z"/>
<path d="M5290 7145 l0 -205 533 0 c439 0 543 -3 596 -15 278 -66 446 -357
376 -653 -41 -172 -168 -311 -332 -362 -58 -18 -93 -20 -314 -20 l-249 0 0
-210 0 -210 244 0 c350 0 478 28 653 142 498 324 570 1057 144 1478 -88 88
-166 141 -271 187 -162 70 -133 67 -787 71 l-593 3 0 -206z"/>
<path d="M5140 6763 c-82 -88 -92 -102 -85 -113 5 -8 10 -8 21 1 8 6 14 8 14
3 0 -4 14 5 30 21 l30 29 0 -36 c0 -46 8 -68 25 -68 8 0 16 -8 19 -17 2 -10 4
7 4 37 0 87 0 84 18 69 22 -18 42 -20 48 -3 3 7 -16 36 -42 64 l-47 51 -35
-38z m56 5 c13 -16 14 -19 2 -10 -12 10 -17 10 -20 1 -2 -7 -10 -9 -17 -5 -9
6 -9 11 0 22 14 18 12 18 35 -8z m-118 -98 c-7 -10 -14 -17 -17 -15 -4 4 18
35 25 35 2 0 -1 -9 -8 -20z"/>
<path d="M5166 6542 c-3 -5 1 -9 9 -9 8 0 12 4 9 9 -3 4 -7 8 -9 8 -2 0 -6 -4
-9 -8z"/>
<path d="M4967 6443 c-4 -3 -7 -21 -7 -39 0 -27 -6 -37 -29 -49 -17 -8 -33
-20 -37 -26 -4 -7 -3 -9 3 -6 13 8 75 -31 68 -43 -4 -6 3 -6 20 0 15 6 104 10
198 10 172 1 207 7 207 39 0 6 4 11 8 11 5 0 9 7 9 15 0 8 -4 15 -9 15 -4 0
-8 18 -8 40 0 33 -3 40 -20 40 -17 0 -20 -7 -20 -40 0 -38 -2 -40 -30 -40 -28
0 -30 2 -30 41 0 33 -3 40 -17 37 -12 -2 -19 -14 -21 -38 -4 -39 -15 -50 -43
-43 -13 4 -19 14 -19 35 0 26 -2 28 -15 14 -8 -8 -15 -24 -15 -36 0 -12 -4
-18 -10 -15 -5 3 -10 1 -10 -4 0 -6 -8 -11 -18 -11 -10 0 -26 -6 -37 -13 -11
-7 -27 -12 -35 -12 -8 1 -21 3 -29 3 -8 1 -11 10 -8 22 3 11 1 23 -4 26 -5 3
-9 21 -9 40 0 32 -16 45 -33 27z"/>
<path d="M5060 6440 c0 -5 7 -7 15 -4 8 4 15 8 15 10 0 2 -7 4 -15 4 -8 0 -15
-4 -15 -10z"/>
<path d="M5168 6443 c7 -3 16 -2 19 1 4 3 -2 6 -13 5 -11 0 -14 -3 -6 -6z"/>
<path d="M4790 6220 c0 -17 6 -20 38 -19 32 1 34 2 12 8 -14 4 -24 13 -22 19
1 7 -5 12 -13 12 -8 0 -15 -9 -15 -20z"/>
<path d="M5543 6226 c-4 -8 -17 -16 -28 -19 -13 -3 -10 -5 12 -6 26 -1 31 3
30 19 -2 24 -3 25 -14 6z"/>
<path d="M4942 6178 c-2 -24 -22 -42 -22 -20 0 13 -44 8 -53 -5 -4 -7 -24 -13
-42 -13 -28 0 -35 -4 -35 -20 0 -16 7 -20 36 -20 34 0 35 -1 32 -32 -3 -30 -6
-33 -35 -32 -26 1 -33 -3 -33 -17 0 -15 8 -19 41 -19 22 0 38 -4 35 -8 -6 -10
36 -8 52 2 18 11 15 -26 -8 -79 -11 -25 -24 -43 -30 -40 -16 10 -12 -28 6 -54
l16 -22 24 22 c14 13 29 19 40 15 15 -6 15 -4 3 10 -10 12 -16 63 -20 188 -3
94 -6 159 -7 144z"/>
<path d="M5406 6125 c-8 -49 2 -134 13 -118 7 10 50 10 104 -1 31 -7 37 -5 37
8 0 12 -9 16 -35 16 -33 0 -35 2 -35 35 0 33 2 35 35 35 28 0 35 4 35 20 0 16
-7 20 -35 20 -19 0 -35 4 -35 8 0 5 -14 6 -31 4 -19 -3 -34 0 -39 8 -4 7 -10
-7 -14 -35z"/>
<path d="M7202 5918 c-23 -66 -112 -185 -198 -268 -49 -47 -89 -91 -91 -98 -1
-8 1 -11 4 -8 12 12 31 -15 25 -36 -4 -18 -2 -20 16 -16 22 6 26 -10 7 -24 -5
-4 -7 -10 -4 -13 9 -8 40 6 34 15 -3 5 13 0 34 -11 22 -10 41 -24 44 -31 2 -7
7 -10 11 -7 14 14 67 175 62 192 -2 9 1 17 7 17 6 0 7 3 4 6 -4 4 -13 1 -22
-6 -17 -14 -27 1 -21 35 2 11 0 27 -5 37 -6 12 0 25 22 50 31 33 32 33 40 11
5 -13 10 -23 13 -23 6 0 39 187 34 200 -2 6 -9 -4 -16 -22z m-62 -142 c0 -2
-8 -10 -17 -17 -16 -13 -17 -12 -4 4 13 16 21 21 21 13z m-38 -48 c-5 -7 -8
-24 -6 -38 3 -23 2 -23 -10 -8 -7 10 -17 14 -22 10 -5 -4 2 5 15 21 24 27 43
39 23 15z"/>
<path d="M4790 5914 c0 -8 5 -12 10 -9 6 4 8 11 5 16 -9 14 -15 11 -15 -7z"/>
<path d="M4828 5893 c6 -2 18 -2 25 0 6 3 1 5 -13 5 -14 0 -19 -2 -12 -5z"/>
<path d="M5391 5866 c-6 -7 -9 -15 -7 -17 3 -2 -80 -3 -182 -2 -103 1 -173 -2
-157 -6 l30 -7 -32 -32 c-31 -32 -31 -32 -7 -32 21 0 24 -4 24 -40 0 -33 3
-40 20 -40 17 0 20 7 20 40 0 38 2 40 30 40 28 0 30 -2 30 -38 0 -28 4 -39 15
-39 8 0 16 5 17 11 0 6 2 16 3 21 2 6 3 18 4 28 1 11 9 17 26 17 23 0 25 -4
25 -40 0 -33 3 -40 20 -40 16 0 20 7 20 35 0 26 -7 42 -30 62 -48 42 -40 53
38 53 70 -1 95 -11 100 -45 5 -28 12 -32 22 -15 6 8 10 12 10 8 0 -5 11 2 24
13 24 21 26 51 3 44 -7 -2 -25 -6 -42 -10 -29 -6 -29 -6 -12 13 10 11 14 23 9
26 -5 3 -15 0 -21 -8z m44 -57 c-4 -5 -13 -9 -22 -9 -13 0 -13 3 -3 15 13 15
35 11 25 -6z"/>
<path d="M4973 5763 c-7 -3 -13 -20 -13 -39 0 -27 4 -34 20 -34 16 0 20 7 20
34 0 37 -7 46 -27 39z"/>
<path d="M5350 5737 c0 -11 4 -15 11 -11 6 3 15 0 20 -7 6 -10 9 -7 9 11 0 19
-5 26 -20 26 -13 0 -20 -7 -20 -19z"/>
<path d="M5162 5530 c1 -60 -3 -84 -12 -90 -16 -10 -33 -3 -25 10 6 10 -14 24
-35 25 -8 0 -14 6 -12 14 3 12 0 12 -12 2 -17 -14 -13 -31 8 -31 8 0 20 -8 27
-17 13 -16 12 -17 -3 -4 -36 28 -16 -6 30 -52 l48 -47 63 64 c58 58 70 86 38
86 -6 0 -23 -12 -39 -27 -15 -14 -31 -24 -34 -20 -3 3 -7 41 -8 84 -1 65 -4
78 -19 81 -15 3 -17 -5 -15 -78z"/>
<path d="M6747 5472 c-33 -13 -44 -26 -79 -96 -22 -45 -34 -75 -27 -68 20 19
31 14 19 -8 -6 -11 -8 -25 -5 -30 3 -6 -3 -11 -14 -11 -12 -1 -25 -2 -30 -3
-4 0 -37 -39 -71 -85 -35 -46 -101 -123 -147 -171 -46 -49 -77 -87 -69 -86 22
3 46 27 39 40 -3 6 -2 8 2 4 5 -5 10 -20 11 -35 2 -15 8 -29 14 -31 15 -5 12
-22 -4 -22 -8 0 -17 -6 -19 -12 -4 -9 -8 -10 -14 -2 -4 6 -17 16 -28 23 -13 8
-14 11 -3 7 9 -2 21 1 27 7 7 9 1 12 -22 12 -24 0 -51 -15 -108 -61 -42 -33
-92 -71 -112 -83 -20 -12 -37 -24 -37 -25 0 -2 10 -2 23 -1 12 2 21 8 19 15
-3 11 0 11 12 0 9 -7 16 -24 16 -37 0 -22 2 -24 16 -12 13 10 19 8 40 -14 13
-14 20 -28 15 -32 -5 -3 -11 0 -13 7 -2 6 -12 12 -21 14 -9 1 -15 -1 -12 -6 3
-5 2 -10 -2 -13 -5 -2 -2 -2 5 0 8 2 16 -6 19 -16 5 -20 5 -20 26 0 25 23 47
25 47 4 0 -8 5 -15 11 -15 5 0 7 -6 4 -12 -4 -7 0 -4 9 6 14 17 16 17 22 3 3
-9 11 -14 18 -10 6 3 6 1 -1 -8 -16 -16 -17 -33 -2 -23 7 4 9 0 5 -14 -5 -15
-1 -21 20 -26 25 -7 25 -8 9 -25 -9 -11 -12 -22 -7 -25 11 -7 77 41 77 56 0 6
8 12 19 14 29 4 68 45 56 59 -7 9 -7 21 0 39 6 17 6 26 0 26 -6 0 -10 -7 -10
-15 0 -8 -7 -15 -15 -15 -17 0 -20 16 -5 25 19 12 -1 25 -36 25 -19 0 -34 5
-34 11 0 5 5 7 10 4 6 -3 10 -2 10 3 0 5 -19 8 -41 8 -27 -1 -43 4 -45 12 -1
7 0 8 3 2 7 -15 50 -12 56 5 8 19 -13 31 -24 14 -6 -10 -9 -8 -9 9 0 13 4 21
9 17 16 -9 25 16 10 27 -11 7 -11 11 -1 15 6 2 9 10 5 16 -3 7 5 2 19 -10 28
-26 58 -33 39 -9 -9 11 -9 16 0 22 7 4 9 3 6 -3 -8 -12 47 -12 59 0 13 13 36
8 31 -7 -10 -24 20 -12 58 26 29 28 33 36 21 41 -10 4 -20 -1 -27 -14 -10 -19
-12 -20 -29 -4 -28 25 -15 41 31 40 31 -1 46 -7 60 -25 10 -14 19 -20 19 -14
0 5 -5 15 -12 22 -7 7 -8 12 -4 12 5 0 3 6 -3 14 -10 12 -8 13 8 9 12 -3 21
-9 21 -13 0 -4 16 -7 35 -5 19 2 37 -1 41 -6 3 -5 9 -7 14 -4 5 3 12 0 16 -6
4 -7 3 -9 -4 -5 -6 3 -17 -3 -26 -15 -9 -14 -21 -19 -31 -15 -9 3 -13 2 -10
-3 3 -5 -3 -12 -12 -14 -16 -4 -16 -5 1 -6 15 -1 16 -4 6 -16 -9 -11 -16 -12
-31 -2 -14 9 -21 9 -30 0 -9 -9 -7 -11 8 -7 12 3 23 2 27 -4 8 -13 -22 -49
-31 -37 -11 14 -40 12 -55 -4 -10 -10 -10 -12 0 -7 7 4 12 2 12 -6 0 -9 3 -9
10 2 7 11 12 12 20 4 8 -8 7 -14 -5 -24 -12 -10 -18 -10 -31 1 -15 12 -16 11
-9 -10 6 -19 2 -28 -16 -42 -14 -11 -18 -19 -10 -19 11 0 11 -3 1 -15 -9 -11
-16 -12 -20 -5 -4 6 -16 -1 -31 -17 -13 -16 -17 -22 -9 -15 8 6 18 12 23 12 4
0 5 -6 1 -12 -4 -7 34 27 84 76 50 50 89 92 87 94 -7 8 16 43 24 37 5 -2 13 1
19 8 10 12 12 17 12 38 0 5 4 8 9 5 5 -3 14 1 21 9 7 8 9 15 4 15 -5 0 0 8 12
18 24 19 79 92 71 92 -3 0 4 11 17 24 26 29 126 206 126 225 0 7 -5 9 -10 6
-6 -4 -8 -11 -5 -16 10 -15 -12 -10 -29 7 -9 8 -16 24 -16 34 0 13 -5 17 -15
14 -8 -4 -15 -1 -15 5 0 6 5 11 11 11 5 0 7 4 4 10 -3 6 1 7 9 4 9 -3 15 -9
14 -12 0 -4 0 -14 2 -22 1 -11 4 -9 10 5 8 22 -13 55 -37 55 -7 0 -13 4 -13 9
0 13 17 23 23 14 2 -5 2 -2 0 5 -1 8 -3 20 -3 28 0 8 -8 14 -17 14 -14 0 -15
2 -4 9 11 7 9 11 -9 21 -17 9 -21 9 -15 0 5 -8 0 -11 -16 -10 -13 1 -28 1 -34
0 -25 -7 -51 -4 -60 6 -7 8 -20 7 -48 -4z m183 -43 c0 -8 -26 -19 -46 -19 -17
0 -18 22 -3 37 9 9 16 9 30 0 11 -7 19 -15 19 -18z m-300 -185 c0 -2 -9 -8
-20 -14 -15 -8 -18 -8 -14 3 4 11 34 21 34 11z m264 -134 c4 0 4 5 0 12 -5 7
-3 8 6 3 10 -6 10 -10 -2 -19 -8 -6 -14 -21 -13 -33 1 -12 -2 -20 -7 -17 -4 3
-8 0 -8 -6 0 -7 -7 -10 -14 -7 -10 4 -13 1 -9 -9 4 -10 0 -12 -11 -8 -9 3 -16
10 -16 15 0 5 -12 9 -27 9 l-28 0 30 16 c19 10 31 11 33 5 2 -6 11 -11 19 -11
11 0 7 7 -11 21 -33 26 -34 41 0 29 34 -13 33 -13 29 13 -4 20 -3 21 9 5 7
-10 16 -18 20 -18z m-99 -8 c-3 -3 -11 0 -18 7 -9 10 -8 11 6 5 10 -3 15 -9
12 -12z m-45 -2 c0 -5 -7 -10 -16 -10 -8 0 -12 5 -9 10 3 6 10 10 16 10 5 0 9
-4 9 -10z m-305 -77 c-1 -10 4 -26 12 -35 14 -15 14 -19 0 -33 -21 -21 -25
-19 -22 9 2 14 -3 27 -10 30 -9 3 -11 -4 -5 -29 9 -39 -10 -79 -25 -55 -5 9
-4 11 3 6 20 -12 13 10 -8 29 -20 19 -20 19 17 57 20 21 38 38 39 38 1 0 1 -8
-1 -17z m345 2 c0 -8 -2 -15 -4 -15 -2 0 -6 7 -10 15 -3 8 -1 15 4 15 6 0 10
-7 10 -15z m-173 -15 c3 -11 10 -20 16 -20 26 0 -8 -15 -38 -16 -24 -2 -32 1
-29 11 3 7 15 11 27 8 20 -4 20 -3 4 7 -9 6 -15 15 -12 21 10 16 27 10 32 -11z
m63 -20 c0 -10 -4 -22 -10 -25 -5 -3 -10 0 -10 8 0 8 -7 20 -15 27 -20 17 -8
32 16 20 10 -6 19 -19 19 -30z m79 27 c8 -10 7 -14 -4 -14 -8 0 -15 6 -15 14
0 7 2 13 4 13 2 0 9 -6 15 -13z m81 -11 c0 -2 -6 -9 -13 -15 -10 -8 -14 -7
-14 4 0 8 6 15 14 15 7 0 13 -2 13 -4z m-480 -60 c0 -2 -8 -10 -17 -17 -16
-13 -17 -12 -4 4 13 16 21 21 21 13z m116 -11 c-3 -10 1 -15 12 -15 14 0 15
-2 2 -10 -9 -6 -17 -5 -22 3 -6 9 -10 8 -18 -3 -5 -8 -10 -11 -10 -6 0 10 30
46 38 46 2 0 2 -7 -2 -15z m44 0 c14 -16 10 -18 -14 -9 -9 3 -16 10 -16 15 0
14 16 11 30 -6z m-37 -62 c-4 -11 -3 -14 5 -9 7 4 12 2 12 -3 0 -6 -4 -11 -9
-11 -13 0 -32 26 -24 33 12 13 22 7 16 -10z m77 -6 c12 -17 12 -17 -14 -6 -18
9 -23 15 -14 20 7 4 13 7 13 6 0 -1 7 -10 15 -20z m190 -3 c0 -8 -19 -13 -24
-6 -3 5 1 9 9 9 8 0 15 -2 15 -3z m-50 -57 c0 -2 -10 -12 -22 -23 l-23 -19 19
23 c18 21 26 27 26 19z m-50 -50 c0 -2 -17 -19 -37 -38 l-38 -34 34 38 c33 34
41 42 41 34z m-333 -52 c8 -8 19 -13 24 -10 5 4 9 0 9 -8 0 -7 -7 -14 -15 -14
-8 0 -12 4 -9 9 5 7 -8 12 -27 10 -3 -1 -6 6 -6 14 0 18 5 18 24 -1z m123 -15
c0 -5 -5 -10 -11 -10 -5 0 -7 5 -4 10 3 6 8 10 11 10 2 0 4 -4 4 -10z m-94
-52 c0 -22 1 -22 -21 1 -16 19 -16 20 2 18 11 0 19 -8 19 -19z m135 -31 c-1
-12 -15 -9 -19 4 -3 6 1 10 8 8 6 -3 11 -8 11 -12z"/>
<path d="M6885 5439 c-9 -14 -2 -20 14 -10 8 6 9 11 3 15 -6 3 -14 1 -17 -5z"/>
<path d="M6970 5399 c0 -5 5 -7 10 -4 6 3 10 8 10 11 0 2 -4 4 -10 4 -5 0 -10
-5 -10 -11z"/>
<path d="M6715 4920 c-3 -5 1 -10 10 -10 9 0 13 5 10 10 -3 6 -8 10 -10 10 -2
0 -7 -4 -10 -10z"/>
<path d="M6596 4863 c-10 -10 -7 -43 4 -43 5 0 14 9 19 19 8 14 7 20 -3 24 -8
3 -17 3 -20 0z"/>
<path d="M6400 4795 c0 -8 7 -15 15 -15 8 0 12 -6 9 -13 -3 -8 3 -20 13 -28
10 -7 15 -9 11 -5 -4 5 -3 15 3 23 9 9 8 13 0 13 -6 0 -10 3 -10 8 4 22 -3 32
-21 32 -11 0 -20 -7 -20 -15z"/>
<path d="M6481 4794 c0 -11 3 -14 6 -6 3 7 2 16 -1 19 -3 4 -6 -2 -5 -13z"/>
<path d="M6508 4803 c6 -2 12 -11 12 -19 0 -8 5 -14 10 -14 6 0 10 4 10 8 0
12 -22 32 -34 31 -6 0 -5 -3 2 -6z"/>
<path d="M6473 4739 c-1 -16 2 -29 7 -29 12 0 13 47 3 53 -5 3 -9 -8 -10 -24z"/>
<path d="M5971 4673 c-5 -10 -11 -16 -13 -13 -5 8 -237 -94 -232 -102 3 -4 12
-4 20 -1 14 5 15 3 5 -15 -15 -28 -14 -42 4 -42 8 0 15 -7 15 -15 0 -8 4 -15
9 -15 8 0 8 -8 2 -39 -1 -2 -8 2 -16 9 -8 7 -12 16 -9 21 3 5 2 9 -3 10 -4 0
-15 2 -24 4 -12 2 -15 -3 -12 -15 3 -13 -4 -23 -24 -34 -25 -14 -26 -15 -6
-16 12 0 23 5 25 12 3 7 9 8 19 3 8 -5 21 -10 29 -10 19 0 43 22 36 34 -3 5 1
11 9 15 27 10 27 -15 0 -40 -14 -13 -23 -29 -19 -36 5 -8 11 -6 20 7 7 10 20
15 28 12 9 -4 18 -2 21 3 4 6 13 10 21 10 8 0 12 -4 9 -10 -3 -6 1 -7 9 -4 9
4 18 -1 22 -10 4 -11 18 -16 42 -16 19 0 33 -3 30 -6 -4 -3 -3 -18 2 -33 4
-16 3 -35 -2 -45 -9 -16 -7 -16 29 -1 60 25 167 85 179 101 6 7 13 12 16 9 2
-3 5 2 5 10 0 11 -6 13 -20 9 -13 -4 -17 -2 -13 5 4 6 0 14 -8 17 -9 3 -13 11
-9 17 4 6 -2 8 -15 5 -13 -4 -23 0 -26 8 -3 9 1 14 12 14 11 0 13 3 6 8 -6 4
-14 17 -18 29 -6 18 -47 39 -68 35 -4 -1 -9 7 -13 17 -3 10 -15 21 -26 24 -12
3 -18 10 -14 16 3 6 1 11 -5 11 -6 0 -8 5 -5 10 3 6 2 10 -4 10 -5 0 -8 9 -6
20 5 25 -1 26 -14 3z m94 -133 c3 -5 1 -10 -4 -10 -6 0 -11 5 -11 10 0 6 2 10
4 10 3 0 8 -4 11 -10z m-265 -61 c0 -6 -4 -7 -10 -4 -5 3 -10 11 -10 16 0 6 5
7 10 4 6 -3 10 -11 10 -16z"/>
<path d="M6103 4673 c-15 -5 -17 -23 -4 -23 5 0 11 7 15 15 3 8 4 15 3 14 -1
0 -8 -3 -14 -6z"/>
<path d="M6017 4631 c-3 -14 -1 -18 9 -14 8 3 14 11 14 19 0 21 -17 17 -23 -5z"/>
<path d="M6117 4637 c-3 -8 1 -14 8 -14 7 0 11 6 8 14 -3 7 -6 13 -8 13 -2 0
-5 -6 -8 -13z"/>
<path d="M6215 4600 c-8 -13 3 -30 20 -30 14 0 27 24 18 34 -10 9 -31 7 -38
-4z"/>
<path d="M6120 4575 c-9 -10 -9 -15 -1 -15 6 0 11 6 11 13 0 8 4 7 10 -3 8
-13 10 -12 10 3 0 21 -13 22 -30 2z"/>
<path d="M5690 4549 c0 -5 5 -7 10 -4 6 3 10 8 10 11 0 2 -4 4 -10 4 -5 0 -10
-5 -10 -11z"/>
<path d="M5605 4530 l-20 -9 20 0 c11 0 27 4 35 9 13 9 13 10 0 9 -8 0 -24 -4
-35 -9z"/>
<path d="M5395 4490 c-60 -10 -100 -18 -89 -19 19 -1 53 -28 47 -38 -2 -1 -3
-6 -3 -10 0 -5 4 -3 8 4 5 8 13 9 22 3 13 -8 12 -10 -2 -10 -10 0 -18 -4 -18
-9 0 -6 -12 -6 -30 -1 -19 5 -28 5 -25 -1 4 -5 0 -9 -7 -9 -7 0 -19 9 -25 19
-12 20 -28 22 -50 8 -7 -5 -17 -5 -23 -2 -5 3 -10 1 -10 -4 0 -6 17 -11 38
-12 27 0 32 -2 18 -8 -26 -10 -3 -18 46 -16 20 1 35 -3 31 -8 -3 -5 -15 -7
-27 -5 -31 6 -52 -18 -28 -31 16 -10 15 -11 -4 -17 -15 -4 -20 -11 -17 -25 3
-10 10 -19 15 -19 6 0 8 6 5 14 -4 11 2 14 24 14 35 -1 37 -6 7 -18 -22 -8
-22 -9 5 -11 41 -2 42 -3 62 -22 13 -14 20 -15 25 -6 5 7 -2 20 -17 33 -24 20
-24 22 -5 23 14 1 19 -3 15 -13 -3 -9 2 -14 16 -14 15 0 19 -4 14 -17 -5 -12
-2 -15 10 -10 9 3 17 2 17 -3 0 -6 5 -9 12 -7 6 1 14 -6 16 -15 3 -18 -10 -23
-52 -18 -18 2 -18 1 0 -23 18 -24 34 -27 34 -6 0 6 -5 7 -12 3 -7 -4 -8 -3 -4
4 14 24 44 13 51 -18 4 -20 13 -30 25 -30 28 0 144 27 243 57 l89 27 -44 17
c-23 10 -36 18 -28 19 13 0 13 1 0 10 -13 8 -12 10 5 11 11 1 23 1 28 0 20 -3
3 11 -24 21 -17 6 -27 13 -22 17 4 3 16 16 26 28 18 21 18 21 0 18 -10 -1 -17
-8 -15 -14 2 -13 -14 -15 -22 -2 -3 5 1 11 8 14 8 3 14 15 13 26 -2 28 -17 27
-17 -1 0 -21 0 -21 -15 -2 -8 10 -15 14 -15 8 0 -6 3 -14 7 -18 4 -3 7 -15 8
-26 1 -16 -2 -17 -18 -9 -12 7 -17 18 -14 30 3 10 0 22 -5 26 -6 3 -8 1 -5 -4
12 -20 -21 -22 -38 -3 -10 11 -22 17 -26 14 -5 -3 -9 5 -9 18 0 13 -4 18 -8
12 -21 -31 -61 -16 -89 34 -17 28 -16 30 5 35 39 11 -27 4 -133 -13z m15 -111
c0 6 5 11 10 11 6 0 9 -6 8 -12 -2 -7 4 -12 12 -10 11 3 12 0 4 -8 -12 -12
-64 6 -64 23 0 5 7 4 15 -3 10 -9 15 -9 15 -1z m-23 -34 c0 -22 -14 -18 -20 4
-3 13 0 18 7 15 7 -3 13 -11 13 -19z m63 -21 c0 -2 -7 -4 -15 -4 -8 0 -15 4
-15 10 0 5 7 7 15 4 8 -4 15 -8 15 -10z m35 6 c-3 -5 -11 -10 -16 -10 -6 0 -7
5 -4 10 3 6 11 10 16 10 6 0 7 -4 4 -10z m-27 -29 c10 -6 9 -10 -7 -14 -21 -5
-36 5 -24 17 8 8 15 7 31 -3z m51 -120 c-15 -5 -22 6 -14 19 6 9 10 9 16 -1 5
-8 4 -15 -2 -18z m50 -15 c-12 -10 -59 -15 -59 -6 0 5 14 10 32 10 17 0 29 -2
27 -4z"/>
<path d="M5683 4483 c-15 -5 -17 -23 -4 -23 5 0 11 7 15 15 3 8 4 15 3 14 -1
0 -8 -3 -14 -6z"/>
<path d="M5161 4428 c2 -31 3 -35 6 -15 3 20 9 27 22 25 10 -2 18 1 19 7 0 5
9 12 19 16 12 5 4 8 -24 8 l-43 1 1 -42z"/>
<path d="M5630 4460 c0 -5 4 -10 9 -10 6 0 13 5 16 10 3 6 -1 10 -9 10 -9 0
-16 -4 -16 -10z"/>
<path d="M5665 4440 c-3 -6 1 -7 9 -4 18 7 21 14 7 14 -6 0 -13 -4 -16 -10z"/>
<path d="M6244 4424 c-18 -14 -18 -15 4 -4 12 6 22 13 22 15 0 8 -5 6 -26 -11z"/>
<path d="M5820 4380 c0 -5 5 -10 10 -10 6 0 10 5 10 10 0 6 -4 10 -10 10 -5 0
-10 -4 -10 -10z"/>
<path d="M5881 4354 c0 -11 3 -14 6 -6 3 7 2 16 -1 19 -3 4 -6 -2 -5 -13z"/>
<path d="M5160 4216 l0 -106 73 1 c78 1 209 15 165 18 -22 1 -27 5 -25 24 1
12 9 25 17 29 11 6 10 7 -4 5 -11 -1 -20 -10 -22 -21 -3 -24 -24 -46 -24 -25
0 7 -14 28 -31 44 -17 17 -30 26 -29 20 5 -24 -1 -34 -17 -28 -10 4 -14 2 -10
-4 3 -5 0 -10 -7 -10 -8 0 -11 9 -8 26 3 14 7 20 9 14 7 -21 23 -15 23 8 0 14
-5 19 -14 16 -20 -8 -28 4 -15 19 12 15 -6 28 -32 22 -7 -2 -13 2 -14 8 0 6
-8 18 -17 28 -17 17 -18 12 -18 -88z m130 -86 c0 -5 -2 -10 -4 -10 -3 0 -8 5
-11 10 -3 6 -1 10 4 10 6 0 11 -4 11 -10z"/>
<path d="M5960 4309 c0 -5 5 -7 10 -4 6 3 10 8 10 11 0 2 -4 4 -10 4 -5 0 -10
-5 -10 -11z"/>
<path d="M5439 4139 c-10 -6 -7 -9 14 -9 29 0 35 5 14 13 -8 3 -20 1 -28 -4z"/>
<path d="M7471 3492 c-17 -22 -31 -43 -31 -46 0 -3 14 -6 30 -6 21 0 42 11 68
34 20 19 35 36 32 39 -3 3 -19 8 -36 11 -28 6 -35 3 -63 -32z"/>
<path d="M2177 3403 c-3 -5 -32 -71 -65 -148 -33 -77 -72 -166 -86 -197 l-26
-58 38 0 c36 0 40 3 61 49 l23 49 88 1 c96 2 100 0 119 -61 12 -36 15 -38 56
-38 l43 0 -48 108 c-26 59 -66 151 -90 205 -41 95 -43 97 -75 97 -19 0 -36 -3
-38 -7z m41 -241 c-33 -2 -62 -1 -65 1 -2 3 10 39 28 82 l32 77 33 -79 33 -78
-61 -3z"/>
<path d="M3003 3402 l-143 -3 0 -199 0 -200 150 0 150 0 0 36 0 36 -57 -3
c-32 -1 -84 -2 -115 -1 l-58 2 0 50 0 50 100 0 100 0 0 35 0 35 -101 0 -100 0
3 48 3 47 113 3 112 3 0 29 c0 16 -3 30 -7 32 -5 2 -72 2 -150 0z"/>
<path d="M3686 3358 c-29 -66 -150 -339 -154 -350 -2 -4 14 -8 36 -8 38 0 40
2 60 49 l20 48 91 2 92 2 21 -50 c20 -49 22 -51 59 -51 22 0 39 3 39 8 0 4
-39 96 -87 205 l-88 197 -33 0 c-30 0 -35 -4 -56 -52z m87 -113 c15 -36 27
-70 27 -75 0 -6 -27 -10 -61 -10 -54 0 -60 2 -55 18 33 87 52 132 57 132 3 0
17 -29 32 -65z"/>
<path d="M4048 3403 c-16 -4 -18 -22 -18 -204 l0 -199 35 0 35 0 0 135 c0 74
3 135 8 135 4 -1 52 -61 107 -135 92 -124 103 -134 133 -135 l32 0 0 200 0
200 -35 0 -34 0 -3 -132 -3 -132 -105 134 c-103 131 -116 143 -152 133z"/>
<path d="M5515 3391 c-106 -49 -153 -172 -106 -276 73 -161 313 -162 390 -2
84 173 -107 360 -284 278z m161 -70 c17 -10 38 -34 47 -54 60 -126 -63 -253
-182 -189 -92 50 -93 203 -1 249 36 19 101 16 136 -6z"/>
<path d="M6637 3398 c-9 -7 -54 -100 -101 -205 l-84 -193 39 0 c37 0 41 3 59
45 l19 45 96 0 96 0 19 -45 c18 -42 22 -45 58 -45 l40 0 -82 188 c-46 103 -85
195 -89 205 -7 20 -46 23 -70 5z m74 -190 l19 -48 -65 0 -65 0 21 53 c12 28
26 65 32 82 l11 30 14 -35 c8 -19 23 -56 33 -82z"/>
<path d="M7395 3399 c-119 -45 -171 -178 -115 -294 37 -76 134 -123 225 -109
182 27 239 271 88 378 -32 22 -54 29 -104 32 -35 2 -77 -1 -94 -7z m145 -75
c39 -24 60 -65 60 -121 0 -138 -160 -195 -238 -85 -47 65 -31 161 31 201 39
25 108 27 147 5z"/>
<path d="M7798 3403 c-16 -4 -18 -22 -18 -204 l0 -199 34 0 c32 0 35 3 41 38
3 20 3 66 1 102 -3 36 -2 80 2 98 l7 33 103 -136 c97 -127 105 -135 137 -135
l35 0 0 200 0 200 -40 0 -39 0 -3 -131 -3 -132 -105 137 c-59 77 -111 135
-120 135 -8 -1 -23 -3 -32 -6z"/>
<path d="M2500 3200 l0 -200 145 0 c136 0 145 1 145 19 0 48 -6 51 -116 51
l-104 0 0 165 0 165 -35 0 -35 0 0 -200z"/>
<path d="M3260 3370 l0 -30 70 0 70 0 0 -124 c0 -118 -1 -126 -22 -140 -31
-22 -60 -20 -92 5 -25 20 -28 20 -51 5 -21 -14 -23 -20 -15 -36 13 -24 53 -46
101 -55 47 -9 110 17 133 55 20 35 33 203 22 293 l-7 57 -105 0 -104 0 0 -30z"/>
<path d="M4500 3200 l0 -200 108 0 c97 0 114 3 161 26 149 75 147 287 -4 355
-31 14 -65 19 -152 19 l-113 0 0 -200z m227 121 c90 -41 99 -165 17 -230 -21
-17 -41 -21 -95 -21 l-69 0 0 135 0 135 53 0 c29 0 70 -9 94 -19z"/>
<path d="M4980 3200 l0 -200 35 0 35 0 0 65 0 65 48 0 c47 0 47 -1 90 -65 40
-62 44 -65 82 -65 22 0 40 2 40 5 0 2 -20 32 -44 67 l-44 62 44 41 c39 36 44
47 44 84 0 54 -22 97 -63 121 -27 17 -51 20 -149 20 l-118 0 0 -200z m207 130
c37 -13 56 -50 43 -84 -13 -35 -40 -46 -114 -46 l-66 0 0 70 0 70 54 0 c29 0
67 -5 83 -10z"/>
<path d="M6110 3200 l0 -200 35 0 35 0 0 60 0 60 53 0 c148 0 226 82 183 194
-26 68 -68 86 -200 86 l-106 0 0 -200z m220 115 c30 -27 27 -78 -6 -104 -20
-16 -41 -21 -85 -21 l-59 0 0 68 c0 38 3 72 8 76 14 15 120 1 142 -19z"/>
<path d="M6882 3368 l3 -33 60 0 60 0 0 -165 1 -165 37 -3 37 -3 0 170 0 171
65 0 65 0 0 30 0 30 -166 0 -165 0 3 -32z"/>
<path d="M3678 2758 c-32 -11 -49 -53 -35 -86 7 -15 27 -27 63 -38 80 -23 97
-60 39 -86 -26 -12 -31 -11 -97 17 -30 12 -20 -13 12 -30 68 -35 140 -7 140
54 0 34 -6 39 -80 66 -65 24 -78 53 -35 81 24 16 29 16 60 1 35 -17 61 -6 28
11 -32 16 -67 20 -95 10z"/>
<path d="M4169 2723 c-11 -26 -36 -81 -55 -122 -38 -82 -38 -81 -24 -81 6 0
18 16 27 35 l17 36 66 -3 c62 -3 66 -4 80 -35 17 -38 45 -47 31 -10 -25 64
-100 215 -110 221 -7 5 -19 -10 -32 -41z m58 -49 c14 -30 23 -57 20 -60 -3 -3
-27 -4 -55 -2 l-49 3 25 58 c13 31 26 57 29 57 2 0 16 -25 30 -56z"/>
<path d="M4463 2763 c-12 -2 -36 -20 -53 -39 -70 -80 -15 -204 90 -204 37 0
93 27 85 40 -4 6 -18 4 -35 -5 -82 -42 -167 24 -144 112 17 66 91 95 147 58
16 -10 27 -12 31 -6 15 23 -71 55 -121 44z"/>
<path d="M6506 2759 c-88 -25 -112 -143 -42 -208 51 -48 153 -33 189 28 55 93
-41 211 -147 180z m107 -50 c72 -78 -7 -199 -104 -159 -56 24 -75 77 -49 141
15 36 63 61 100 53 14 -2 37 -18 53 -35z"/>
<path d="M2620 2640 c0 -73 4 -120 10 -120 6 0 10 25 10 55 l0 55 65 0 c37 0
65 4 65 10 0 6 -28 10 -65 10 l-65 0 0 45 0 45 75 0 c43 0 75 4 75 10 0 6 -35
10 -85 10 l-85 0 0 -120z"/>
<path d="M2870 2683 c0 -126 39 -175 126 -158 54 10 74 51 74 153 0 61 -3 82
-13 82 -10 0 -13 -22 -13 -86 0 -82 -1 -87 -27 -110 -47 -40 -97 -28 -116 27
-6 18 -11 63 -11 100 0 39 -4 69 -10 69 -6 0 -10 -32 -10 -77z"/>
<path d="M3172 2643 l3 -118 73 0 c41 0 76 3 79 8 2 4 -25 7 -61 7 l-66 0 0
110 c0 92 -2 110 -15 110 -13 0 -15 -17 -13 -117z"/>
<path d="M3410 2640 l0 -120 80 0 c97 0 107 18 13 22 l-68 3 -3 108 c-4 148
-22 138 -22 -13z"/>
<path d="M3865 2750 c3 -5 22 -10 41 -10 l34 0 2 -82 c2 -118 3 -122 14 -128
5 -3 10 39 12 103 l3 107 39 0 c22 0 40 5 40 10 0 6 -39 10 -96 10 -61 0 -93
-4 -89 -10z"/>
<path d="M4680 2640 c0 -73 4 -120 10 -120 6 0 10 15 10 33 0 24 8 41 29 61
l28 27 44 -60 c24 -33 50 -61 58 -61 16 0 -1 30 -57 98 l-35 44 49 49 c26 27
42 49 34 49 -7 0 -44 -33 -81 -72 l-68 -73 -1 73 c0 41 -4 72 -10 72 -6 0 -10
-47 -10 -120z"/>
<path d="M5090 2641 l0 -121 44 0 c70 0 105 11 135 41 35 35 45 80 27 122 -24
56 -50 71 -132 75 l-74 4 0 -121z m139 84 c37 -19 57 -66 45 -107 -13 -45 -54
-72 -111 -72 l-48 -1 -3 98 -3 97 46 0 c25 0 59 -7 74 -15z"/>
<path d="M5400 2640 l0 -120 85 0 c50 0 85 4 85 10 0 9 -18 11 -120 14 -22 1
-25 6 -28 44 l-3 42 65 0 c49 0 66 4 66 13 0 10 -16 14 -62 13 l-63 -1 -3 43
-3 42 75 0 c44 0 76 4 76 10 0 6 -35 10 -85 10 l-85 0 0 -120z"/>
<path d="M5640 2756 c0 -17 99 -231 108 -234 7 -2 15 5 19 15 3 10 28 64 54
121 38 80 44 103 31 100 -10 -2 -32 -40 -58 -103 l-43 -100 -19 45 c-11 25
-32 71 -46 103 -14 31 -30 57 -35 57 -6 0 -11 -2 -11 -4z"/>
<path d="M5948 2754 c-4 -3 -4 -56 -2 -117 l4 -112 85 -3 c54 -2 85 1 85 8 0
6 -30 10 -75 10 l-75 0 0 45 0 45 59 0 c33 0 63 5 66 10 4 6 -18 10 -59 10
l-66 0 0 45 0 45 70 0 c40 0 70 4 70 10 0 10 -152 14 -162 4z"/>
<path d="M6210 2640 l0 -120 74 0 c95 0 110 18 19 22 l-68 3 -3 108 c-4 148
-22 138 -22 -13z"/>
<path d="M6760 2640 c0 -68 4 -120 9 -120 6 0 11 19 13 43 l3 42 59 5 c71 7
101 35 92 85 -10 48 -39 65 -112 65 l-64 0 0 -120z m132 83 c20 -18 24 -63 6
-81 -7 -7 -36 -12 -65 -12 l-53 0 0 48 c0 27 3 52 7 55 13 14 87 7 105 -10z"/>
<path d="M7030 2640 l0 -120 86 0 c64 0 85 3 82 13 -3 8 -28 12 -74 13 l-69 2
-3 41 -3 41 66 0 c49 0 66 3 62 13 -2 8 -25 12 -63 12 l-59 0 -3 43 -3 42 70
0 c41 0 71 4 71 10 0 6 -33 10 -80 10 l-80 0 0 -120z"/>
<path d="M7290 2640 c0 -69 4 -120 9 -120 6 0 11 21 13 48 l3 47 35 -3 c27 -2
44 -14 77 -50 50 -57 65 -52 22 8 l-31 43 31 24 c37 29 41 68 11 101 -18 19
-32 22 -95 22 l-75 0 0 -120z m150 80 c25 -25 25 -32 1 -61 -15 -19 -28 -23
-72 -24 l-54 0 -3 39 c-5 59 1 66 58 66 37 0 55 -5 70 -20z"/>
</g>
</svg>
